STARTFONT 2.1
FONT -B&H-Lucida Sans Typewriter-Medium-R-Normal-Sans-18-180-72-72-M-110-ISO8859-1
SIZE 18 72 72
FONTBOUNDINGBOX 14 21 -1 -4

STARTPROPERTIES 22
FONTNAME_REGISTRY "-"
FOUNDRY "B&H"
FAMILY_NAME "Lucida Sans Typewriter"
WEIGHT_NAME "Medium"
SLANT "R"
SETWIDTH_NAME "Normal"
ADD_STYLE_NAME "Sans"
PIXEL_SIZE 18
POINT_SIZE 180
RESOLUTION_X 72
RESOLUTION_Y 72
SPACING "M"
CHARSET_REGISTRY "ISO8859"
CHARSET_ENCODING "1"
FULL_NAME "LucidaSans-Typewriter"
AVERAGE_WIDTH 110
WEIGHT 10
X_HEIGHT 10
QUAD_WIDTH 11
DEFAULT_CHAR 32
FONT_DESCENT 4
FONT_ASCENT 17
ENDPROPERTIES

CHARS 190

STARTCHAR space
ENCODING 32
SWIDTH 602 0
DWIDTH 11 0
BBX 1 1 0 0
BITMAP
00
ENDCHAR

STARTCHAR exclam
ENCODING 33
SWIDTH 602 0
DWIDTH 11 0
BBX 2 13 4 0
BITMAP
C0
C0
C0
C0
C0
C0
C0
C0
C0
00
00
C0
C0
ENDCHAR

STARTCHAR quotedbl
ENCODING 34
SWIDTH 602 0
DWIDTH 11 0
BBX 6 5 2 8
BITMAP
CC
CC
CC
88
88
ENDCHAR

STARTCHAR numbersign
ENCODING 35
SWIDTH 602 0
DWIDTH 11 0
BBX 10 13 0 0
BITMAP
0900
0900
0900
7FC0
1200
1200
1200
FF80
2400
2400
2400
2400
2400
ENDCHAR

STARTCHAR dollar
ENCODING 36
SWIDTH 602 0
DWIDTH 11 0
BBX 7 14 2 -1
BITMAP
7E
D2
D0
D0
D0
70
38
1C
16
16
16
96
FC
10
ENDCHAR

STARTCHAR percent
ENCODING 37
SWIDTH 602 0
DWIDTH 11 0
BBX 11 13 0 0
BITMAP
7060
8840
8880
8900
8B00
7200
0400
09C0
1A20
1220
2220
4220
C1C0
ENDCHAR

STARTCHAR ampersand
ENCODING 38
SWIDTH 602 0
DWIDTH 11 0
BBX 11 13 0 0
BITMAP
1E00
3300
3300
3300
1600
1C00
6C60
CC60
C660
C7C0
C3C0
6380
3EE0
ENDCHAR

STARTCHAR quoteright
ENCODING 39
SWIDTH 602 0
DWIDTH 11 0
BBX 3 4 4 9
BITMAP
E0
60
60
C0
ENDCHAR

STARTCHAR parenleft
ENCODING 40
SWIDTH 602 0
DWIDTH 11 0
BBX 7 16 3 -3
BITMAP
0E
1C
30
60
60
C0
C0
C0
C0
C0
C0
60
60
30
1C
06
ENDCHAR

STARTCHAR parenright
ENCODING 41
SWIDTH 602 0
DWIDTH 11 0
BBX 7 16 1 -3
BITMAP
E0
70
18
0C
0C
06
06
06
06
06
06
0C
0C
18
70
C0
ENDCHAR

STARTCHAR asterisk
ENCODING 42
SWIDTH 602 0
DWIDTH 11 0
BBX 8 8 1 5
BITMAP
18
18
DB
E7
24
3C
66
66
ENDCHAR

STARTCHAR plus
ENCODING 43
SWIDTH 602 0
DWIDTH 11 0
BBX 9 10 1 0
BITMAP
0800
0800
0800
0800
0800
FF80
0800
0800
0800
0800
ENDCHAR

STARTCHAR comma
ENCODING 44
SWIDTH 602 0
DWIDTH 11 0
BBX 3 6 4 -3
BITMAP
E0
E0
E0
60
60
C0
ENDCHAR

STARTCHAR minus
ENCODING 45
SWIDTH 602 0
DWIDTH 11 0
BBX 9 1 1 4
BITMAP
FF80
ENDCHAR

STARTCHAR period
ENCODING 46
SWIDTH 602 0
DWIDTH 11 0
BBX 3 3 4 0
BITMAP
E0
E0
E0
ENDCHAR

STARTCHAR slash
ENCODING 47
SWIDTH 602 0
DWIDTH 11 0
BBX 9 16 1 -3
BITMAP
0080
0180
0100
0300
0200
0600
0400
0C00
0800
1800
1000
3000
2000
6000
4000
C000
ENDCHAR

STARTCHAR zero
ENCODING 48
SWIDTH 602 0
DWIDTH 11 0
BBX 9 13 1 0
BITMAP
1C00
6300
6300
C180
C180
C180
C180
C180
C180
C180
6300
6300
1C00
ENDCHAR

STARTCHAR one
ENCODING 49
SWIDTH 602 0
DWIDTH 11 0
BBX 8 13 2 0
BITMAP
18
78
18
18
18
18
18
18
18
18
18
18
FF
ENDCHAR

STARTCHAR two
ENCODING 50
SWIDTH 602 0
DWIDTH 11 0
BBX 7 13 2 0
BITMAP
F8
8C
06
06
06
0C
08
10
20
60
40
FE
FE
ENDCHAR

STARTCHAR three
ENCODING 51
SWIDTH 602 0
DWIDTH 11 0
BBX 7 13 2 0
BITMAP
FC
8E
06
06
06
0C
7C
0E
06
06
06
8C
F8
ENDCHAR

STARTCHAR four
ENCODING 52
SWIDTH 602 0
DWIDTH 11 0
BBX 9 13 1 0
BITMAP
0600
0E00
0E00
1600
2600
2600
4600
4600
8600
FF80
0600
0600
0600
ENDCHAR

STARTCHAR five
ENCODING 53
SWIDTH 602 0
DWIDTH 11 0
BBX 7 13 2 0
BITMAP
FE
FE
80
80
80
FC
06
06
06
06
06
84
F8
ENDCHAR

STARTCHAR six
ENCODING 54
SWIDTH 602 0
DWIDTH 11 0
BBX 9 13 1 0
BITMAP
1F00
3100
6000
4000
C000
DE00
E300
C180
C180
C180
4180
6300
3E00
ENDCHAR

STARTCHAR seven
ENCODING 55
SWIDTH 602 0
DWIDTH 11 0
BBX 8 13 2 0
BITMAP
FF
FF
02
06
04
08
08
10
30
30
60
60
60
ENDCHAR

STARTCHAR eight
ENCODING 56
SWIDTH 602 0
DWIDTH 11 0
BBX 9 13 1 0
BITMAP
1F00
3380
6180
6180
6100
3200
1E00
6700
C380
C180
C180
6300
3E00
ENDCHAR

STARTCHAR nine
ENCODING 57
SWIDTH 602 0
DWIDTH 11 0
BBX 9 13 1 0
BITMAP
3E00
6300
C100
C180
C180
C180
6380
3D80
0180
0100
0300
4600
7C00
ENDCHAR

STARTCHAR colon
ENCODING 58
SWIDTH 602 0
DWIDTH 11 0
BBX 3 10 4 0
BITMAP
E0
E0
E0
00
00
00
00
E0
E0
E0
ENDCHAR

STARTCHAR semicolon
ENCODING 59
SWIDTH 602 0
DWIDTH 11 0
BBX 3 13 4 -3
BITMAP
E0
E0
E0
00
00
00
00
E0
E0
E0
60
60
C0
ENDCHAR

STARTCHAR less
ENCODING 60
SWIDTH 602 0
DWIDTH 11 0
BBX 9 10 1 0
BITMAP
0080
0180
0600
1800
E000
6000
1800
0600
0180
0080
ENDCHAR

STARTCHAR equal
ENCODING 61
SWIDTH 602 0
DWIDTH 11 0
BBX 9 4 1 2
BITMAP
FF80
0000
0000
FF80
ENDCHAR

STARTCHAR greater
ENCODING 62
SWIDTH 602 0
DWIDTH 11 0
BBX 9 10 1 0
BITMAP
8000
C000
3000
0C00
0300
0380
0C00
3000
C000
8000
ENDCHAR

STARTCHAR question
ENCODING 63
SWIDTH 602 0
DWIDTH 11 0
BBX 8 13 2 0
BITMAP
FE
83
83
03
06
0C
18
30
30
00
00
30
30
ENDCHAR

STARTCHAR at
ENCODING 64
SWIDTH 602 0
DWIDTH 11 0
BBX 10 13 1 0
BITMAP
1F00
2180
4780
4880
9080
9080
9180
9180
9280
CEC0
4000
2100
1F00
ENDCHAR

STARTCHAR A
ENCODING 65
SWIDTH 602 0
DWIDTH 11 0
BBX 11 13 0 0
BITMAP
0E00
0E00
0E00
1B00
1300
3300
3380
2180
7F80
60C0
40C0
C0C0
C0E0
ENDCHAR

STARTCHAR B
ENCODING 66
SWIDTH 602 0
DWIDTH 11 0
BBX 8 13 2 0
BITMAP
FE
C7
C3
C3
C2
C4
FC
C6
C3
C3
C3
C7
FE
ENDCHAR

STARTCHAR C
ENCODING 67
SWIDTH 602 0
DWIDTH 11 0
BBX 9 13 1 0
BITMAP
1F80
3080
6000
4000
C000
C000
C000
C000
C000
6000
7080
3F80
1F00
ENDCHAR

STARTCHAR D
ENCODING 68
SWIDTH 602 0
DWIDTH 11 0
BBX 9 13 1 0
BITMAP
FC00
C700
C300
C180
C180
C180
C180
C180
C180
C180
C300
C600
FC00
ENDCHAR

STARTCHAR E
ENCODING 69
SWIDTH 602 0
DWIDTH 11 0
BBX 8 13 2 0
BITMAP
FF
C0
C0
C0
C0
C0
FE
C0
C0
C0
C0
C0
FF
ENDCHAR

STARTCHAR F
ENCODING 70
SWIDTH 602 0
DWIDTH 11 0
BBX 8 13 2 0
BITMAP
FF
C0
C0
C0
C0
C0
FE
C0
C0
C0
C0
C0
C0
ENDCHAR

STARTCHAR G
ENCODING 71
SWIDTH 602 0
DWIDTH 11 0
BBX 9 13 1 0
BITMAP
1F80
3080
6000
4000
C000
C000
C180
C180
C180
4180
6180
3F00
1E00
ENDCHAR

STARTCHAR H
ENCODING 72
SWIDTH 602 0
DWIDTH 11 0
BBX 9 13 1 0
BITMAP
C180
C180
C180
C180
C180
C180
FF80
C180
C180
C180
C180
C180
C180
ENDCHAR

STARTCHAR I
ENCODING 73
SWIDTH 602 0
DWIDTH 11 0
BBX 8 13 1 0
BITMAP
FF
18
18
18
18
18
18
18
18
18
18
18
FF
ENDCHAR

STARTCHAR J
ENCODING 74
SWIDTH 602 0
DWIDTH 11 0
BBX 7 13 1 0
BITMAP
7E
06
06
06
06
06
06
06
06
06
06
8C
F8
ENDCHAR

STARTCHAR K
ENCODING 75
SWIDTH 602 0
DWIDTH 11 0
BBX 9 13 2 0
BITMAP
C300
C600
C400
CC00
D800
F000
F800
D800
CC00
CE00
C600
C300
C380
ENDCHAR

STARTCHAR L
ENCODING 76
SWIDTH 602 0
DWIDTH 11 0
BBX 8 13 2 0
BITMAP
C0
C0
C0
C0
C0
C0
C0
C0
C0
C0
C0
C0
FF
ENDCHAR

STARTCHAR M
ENCODING 77
SWIDTH 602 0
DWIDTH 11 0
BBX 10 13 0 0
BITMAP
E1C0
E1C0
D2C0
D2C0
D2C0
D2C0
D2C0
CCC0
CCC0
CCC0
CCC0
CCC0
C0C0
ENDCHAR

STARTCHAR N
ENCODING 78
SWIDTH 602 0
DWIDTH 11 0
BBX 9 13 1 0
BITMAP
E180
E180
F180
D180
D980
C980
CD80
C580
C380
C380
C380
C180
C180
ENDCHAR

STARTCHAR O
ENCODING 79
SWIDTH 602 0
DWIDTH 11 0
BBX 10 13 0 0
BITMAP
3F00
6180
C0C0
C0C0
C0C0
C0C0
C0C0
C0C0
C0C0
C0C0
C0C0
6180
3F00
ENDCHAR

STARTCHAR P
ENCODING 80
SWIDTH 602 0
DWIDTH 11 0
BBX 8 13 2 0
BITMAP
FE
C3
C3
C3
C3
C3
C2
FC
C0
C0
C0
C0
C0
ENDCHAR

STARTCHAR Q
ENCODING 81
SWIDTH 602 0
DWIDTH 11 0
BBX 11 15 0 -2
BITMAP
3F00
6180
C0C0
C0C0
C0C0
C0C0
C0C0
C0C0
C0C0
C0C0
C0C0
6180
3F00
0300
01E0
ENDCHAR

STARTCHAR R
ENCODING 82
SWIDTH 602 0
DWIDTH 11 0
BBX 9 13 2 0
BITMAP
FE00
C700
C300
C300
C300
C600
FC00
CC00
CE00
C600
C700
C380
C180
ENDCHAR

STARTCHAR S
ENCODING 83
SWIDTH 602 0
DWIDTH 11 0
BBX 9 13 1 0
BITMAP
3F00
6100
C000
C000
E000
7800
1E00
0700
0380
0180
0180
C300
FE00
ENDCHAR

STARTCHAR T
ENCODING 84
SWIDTH 602 0
DWIDTH 11 0
BBX 10 13 0 0
BITMAP
FFC0
0C00
0C00
0C00
0C00
0C00
0C00
0C00
0C00
0C00
0C00
0C00
0C00
ENDCHAR

STARTCHAR U
ENCODING 85
SWIDTH 602 0
DWIDTH 11 0
BBX 9 13 1 0
BITMAP
C180
C180
C180
C180
C180
C180
C180
C180
C180
C180
C180
6300
3E00
ENDCHAR

STARTCHAR V
ENCODING 86
SWIDTH 602 0
DWIDTH 11 0
BBX 11 13 0 0
BITMAP
C060
C060
E0C0
60C0
6080
7180
3180
3100
3B00
1A00
1A00
1E00
0C00
ENDCHAR

STARTCHAR W
ENCODING 87
SWIDTH 602 0
DWIDTH 11 0
BBX 11 13 0 0
BITMAP
C060
C460
C460
EEE0
6AC0
6AC0
7BC0
3B80
3180
3180
3180
1100
1100
ENDCHAR

STARTCHAR X
ENCODING 88
SWIDTH 602 0
DWIDTH 11 0
BBX 11 13 0 0
BITMAP
E0C0
7080
3180
3B00
1A00
0E00
0E00
0E00
1F00
3380
3180
61C0
C0E0
ENDCHAR

STARTCHAR Y
ENCODING 89
SWIDTH 602 0
DWIDTH 11 0
BBX 10 13 1 0
BITMAP
C0C0
6080
6180
3300
3300
1E00
1E00
0C00
0C00
0C00
0C00
0C00
0C00
ENDCHAR

STARTCHAR Z
ENCODING 90
SWIDTH 602 0
DWIDTH 11 0
BBX 9 13 1 0
BITMAP
FF80
0180
0300
0700
0600
0C00
1C00
1800
3000
7000
6000
C000
FF80
ENDCHAR

STARTCHAR bracketleft
ENCODING 91
SWIDTH 602 0
DWIDTH 11 0
BBX 6 16 4 -3
BITMAP
FC
C0
C0
C0
C0
C0
C0
C0
C0
C0
C0
C0
C0
C0
C0
FC
ENDCHAR

STARTCHAR backslash
ENCODING 92
SWIDTH 602 0
DWIDTH 11 0
BBX 9 16 1 -3
BITMAP
C000
4000
6000
2000
3000
1000
1800
0800
0C00
0400
0600
0200
0300
0100
0180
0080
ENDCHAR

STARTCHAR bracketright
ENCODING 93
SWIDTH 602 0
DWIDTH 11 0
BBX 6 16 1 -3
BITMAP
FC
0C
0C
0C
0C
0C
0C
0C
0C
0C
0C
0C
0C
0C
0C
FC
ENDCHAR

STARTCHAR asciicircum
ENCODING 94
SWIDTH 602 0
DWIDTH 11 0
BBX 9 10 1 3
BITMAP
0800
0800
1C00
1400
1400
2200
2200
4100
4100
C180
ENDCHAR

STARTCHAR underscore
ENCODING 95
SWIDTH 602 0
DWIDTH 11 0
BBX 11 1 0 -1
BITMAP
FFE0
ENDCHAR

STARTCHAR quoteleft
ENCODING 96
SWIDTH 602 0
DWIDTH 11 0
BBX 3 5 4 8
BITMAP
60
C0
C0
E0
E0
ENDCHAR

STARTCHAR a
ENCODING 97
SWIDTH 602 0
DWIDTH 11 0
BBX 10 10 1 0
BITMAP
7E00
4300
0300
0300
3F00
6300
C300
C300
C700
7DC0
ENDCHAR

STARTCHAR b
ENCODING 98
SWIDTH 602 0
DWIDTH 11 0
BBX 9 14 1 0
BITMAP
C000
C000
C000
C000
CE00
FF00
E380
C180
C180
C180
C180
C100
E300
DE00
ENDCHAR

STARTCHAR c
ENCODING 99
SWIDTH 602 0
DWIDTH 11 0
BBX 8 10 2 0
BITMAP
3F
71
E0
C0
C0
C0
C0
E0
71
3F
ENDCHAR

STARTCHAR d
ENCODING 100
SWIDTH 602 0
DWIDTH 11 0
BBX 9 14 1 0
BITMAP
0180
0180
0180
0180
3D80
7380
E180
C180
C180
C180
C180
E380
7F80
3980
ENDCHAR

STARTCHAR e
ENCODING 101
SWIDTH 602 0
DWIDTH 11 0
BBX 8 10 1 0
BITMAP
3C
66
43
C3
FF
C0
C0
C0
61
3F
ENDCHAR

STARTCHAR f
ENCODING 102
SWIDTH 602 0
DWIDTH 11 0
BBX 10 14 1 0
BITMAP
0F80
1800
1800
1800
FFC0
1800
1800
1800
1800
1800
1800
1800
1800
1800
ENDCHAR

STARTCHAR g
ENCODING 103
SWIDTH 602 0
DWIDTH 11 0
BBX 9 14 1 -4
BITMAP
3D80
6380
4180
C180
C180
C180
C180
E380
7F80
3980
0180
0180
4300
7E00
ENDCHAR

STARTCHAR h
ENCODING 104
SWIDTH 602 0
DWIDTH 11 0
BBX 8 14 1 0
BITMAP
C0
C0
C0
C0
CE
FF
E3
C3
C3
C3
C3
C3
C3
C3
ENDCHAR

STARTCHAR i
ENCODING 105
SWIDTH 602 0
DWIDTH 11 0
BBX 5 14 2 0
BITMAP
18
18
00
00
F8
18
18
18
18
18
18
18
18
18
ENDCHAR

STARTCHAR j
ENCODING 106
SWIDTH 602 0
DWIDTH 11 0
BBX 7 18 1 -4
BITMAP
06
06
00
00
7E
06
06
06
06
06
06
06
06
06
06
06
8C
F8
ENDCHAR

STARTCHAR k
ENCODING 107
SWIDTH 602 0
DWIDTH 11 0
BBX 9 14 2 0
BITMAP
C000
C000
C000
C000
C300
C600
CC00
D800
F000
F800
DC00
CE00
C700
C380
ENDCHAR

STARTCHAR l
ENCODING 108
SWIDTH 602 0
DWIDTH 11 0
BBX 6 14 1 0
BITMAP
FC
0C
0C
0C
0C
0C
0C
0C
0C
0C
0C
0C
0C
0C
ENDCHAR

STARTCHAR m
ENCODING 109
SWIDTH 602 0
DWIDTH 11 0
BBX 10 10 1 0
BITMAP
D980
FFC0
CCC0
CCC0
CCC0
CCC0
CCC0
CCC0
CCC0
CCC0
ENDCHAR

STARTCHAR n
ENCODING 110
SWIDTH 602 0
DWIDTH 11 0
BBX 8 10 1 0
BITMAP
CE
DF
F3
E3
C3
C3
C3
C3
C3
C3
ENDCHAR

STARTCHAR o
ENCODING 111
SWIDTH 602 0
DWIDTH 11 0
BBX 9 10 1 0
BITMAP
3E00
6300
C180
C180
C180
C180
C180
C180
6300
3E00
ENDCHAR

STARTCHAR p
ENCODING 112
SWIDTH 602 0
DWIDTH 11 0
BBX 9 14 1 -4
BITMAP
CE00
FF00
E380
C180
C180
C180
C180
C180
E300
DE00
C000
C000
C000
C000
ENDCHAR

STARTCHAR q
ENCODING 113
SWIDTH 602 0
DWIDTH 11 0
BBX 9 14 1 -4
BITMAP
3D80
6380
4180
C180
C180
C180
C180
E380
7F80
3D80
0180
0180
0180
0180
ENDCHAR

STARTCHAR r
ENCODING 114
SWIDTH 602 0
DWIDTH 11 0
BBX 7 10 3 0
BITMAP
CE
DE
F0
E0
C0
C0
C0
C0
C0
C0
ENDCHAR

STARTCHAR s
ENCODING 115
SWIDTH 602 0
DWIDTH 11 0
BBX 8 10 1 0
BITMAP
7E
C2
C0
F0
78
3E
0F
07
87
FE
ENDCHAR

STARTCHAR t
ENCODING 116
SWIDTH 602 0
DWIDTH 11 0
BBX 8 12 1 0
BITMAP
30
30
FF
30
30
30
30
30
30
30
30
1E
ENDCHAR

STARTCHAR u
ENCODING 117
SWIDTH 602 0
DWIDTH 11 0
BBX 8 10 1 0
BITMAP
C3
C3
C3
C3
C3
C3
C3
C3
FF
7B
ENDCHAR

STARTCHAR v
ENCODING 118
SWIDTH 602 0
DWIDTH 11 0
BBX 10 10 1 0
BITMAP
C0C0
E080
6180
6100
3300
3300
3E00
1E00
1C00
0C00
ENDCHAR

STARTCHAR w
ENCODING 119
SWIDTH 602 0
DWIDTH 11 0
BBX 11 10 0 0
BITMAP
C060
C460
C460
4E40
4A40
4A40
7BC0
3180
3180
3180
ENDCHAR

STARTCHAR x
ENCODING 120
SWIDTH 602 0
DWIDTH 11 0
BBX 10 10 1 0
BITMAP
E180
6300
3200
3E00
1C00
1C00
3600
2700
6300
C1C0
ENDCHAR

STARTCHAR y
ENCODING 121
SWIDTH 602 0
DWIDTH 11 0
BBX 10 14 1 -4
BITMAP
C0C0
E180
6180
6100
3300
3200
3E00
1E00
1C00
0C00
0800
1800
1000
6000
ENDCHAR

STARTCHAR z
ENCODING 122
SWIDTH 602 0
DWIDTH 11 0
BBX 8 10 1 0
BITMAP
FF
03
06
0E
1C
38
30
60
C0
FF
ENDCHAR

STARTCHAR braceleft
ENCODING 123
SWIDTH 602 0
DWIDTH 11 0
BBX 7 16 2 -3
BITMAP
1E
30
30
30
18
18
18
F0
10
18
18
18
30
30
30
1E
ENDCHAR

STARTCHAR bar
ENCODING 124
SWIDTH 602 0
DWIDTH 11 0
BBX 1 16 5 -3
BITMAP
80
80
80
80
80
80
80
80
80
80
80
80
80
80
80
80
ENDCHAR

STARTCHAR braceright
ENCODING 125
SWIDTH 602 0
DWIDTH 11 0
BBX 7 16 2 -3
BITMAP
F0
18
18
18
30
30
30
1E
10
30
30
30
18
18
18
F0
ENDCHAR

STARTCHAR asciitilde
ENCODING 126
SWIDTH 602 0
DWIDTH 11 0
BBX 9 3 1 3
BITMAP
7080
9C80
8700
ENDCHAR

STARTCHAR exclamdown
ENCODING 161
SWIDTH 602 0
DWIDTH 11 0
BBX 2 14 4 -4
BITMAP
C0
C0
00
00
C0
C0
C0
C0
C0
C0
C0
C0
C0
C0
ENDCHAR

STARTCHAR cent
ENCODING 162
SWIDTH 602 0
DWIDTH 11 0
BBX 7 13 2 0
BITMAP
08
08
3E
68
C8
C8
C8
C8
C8
48
6A
3E
08
ENDCHAR

STARTCHAR sterling
ENCODING 163
SWIDTH 602 0
DWIDTH 11 0
BBX 8 13 2 0
BITMAP
0F
10
30
30
30
7C
30
30
30
30
70
FF
FF
ENDCHAR

STARTCHAR currency
ENCODING 164
SWIDTH 602 0
DWIDTH 11 0
BBX 9 9 1 2
BITMAP
8080
7F00
6300
4100
4100
4100
6300
7F00
8080
ENDCHAR

STARTCHAR yen
ENCODING 165
SWIDTH 602 0
DWIDTH 11 0
BBX 10 13 1 0
BITMAP
E0C0
6080
7100
3100
3A00
1A00
0C00
7F80
0C00
7F80
0C00
0C00
0C00
ENDCHAR

STARTCHAR brokenbar
ENCODING 166
SWIDTH 602 0
DWIDTH 11 0
BBX 1 16 5 -3
BITMAP
80
80
80
80
80
80
00
00
00
80
80
80
80
80
80
80
ENDCHAR

STARTCHAR section
ENCODING 167
SWIDTH 602 0
DWIDTH 11 0
BBX 7 16 2 -3
BITMAP
3E
62
C0
E0
F8
7C
CE
C6
E6
76
3C
0E
06
06
86
FC
ENDCHAR

STARTCHAR dieresis
ENCODING 168
SWIDTH 602 0
DWIDTH 11 0
BBX 5 2 3 11
BITMAP
D8
D8
ENDCHAR

STARTCHAR copyright
ENCODING 169
SWIDTH 602 0
DWIDTH 11 0
BBX 10 13 0 0
BITMAP
1E00
6180
4080
8E40
9140
A040
A040
A040
9140
8E40
4080
6180
1E00
ENDCHAR

STARTCHAR ordfeminine
ENCODING 170
SWIDTH 602 0
DWIDTH 11 0
BBX 7 7 2 6
BITMAP
F8
8C
0C
7C
CC
CC
76
ENDCHAR

STARTCHAR guillemotleft
ENCODING 171
SWIDTH 602 0
DWIDTH 11 0
BBX 9 8 1 1
BITMAP
1980
3300
6600
CC00
6600
3300
1980
0880
ENDCHAR

STARTCHAR logicalnot
ENCODING 172
SWIDTH 602 0
DWIDTH 11 0
BBX 9 4 1 3
BITMAP
FF80
0080
0080
0080
ENDCHAR

STARTCHAR hyphen
ENCODING 173
SWIDTH 602 0
DWIDTH 11 0
BBX 7 1 2 5
BITMAP
FE
ENDCHAR

STARTCHAR registered
ENCODING 174
SWIDTH 602 0
DWIDTH 11 0
BBX 7 8 2 6
BITMAP
38
44
BA
AA
B2
AA
44
38
ENDCHAR

STARTCHAR macron
ENCODING 175
SWIDTH 602 0
DWIDTH 11 0
BBX 5 1 3 11
BITMAP
F8
ENDCHAR

STARTCHAR degree
ENCODING 176
SWIDTH 602 0
DWIDTH 11 0
BBX 3 3 4 10
BITMAP
E0
A0
E0
ENDCHAR

STARTCHAR plusminus
ENCODING 177
SWIDTH 602 0
DWIDTH 11 0
BBX 9 10 1 0
BITMAP
0800
0800
0800
FF80
0800
0800
0800
0000
0000
FF80
ENDCHAR

STARTCHAR twosuperior
ENCODING 178
SWIDTH 602 0
DWIDTH 11 0
BBX 4 7 -1 6
BITMAP
E0
10
10
20
40
80
F0
ENDCHAR

STARTCHAR threesuperior
ENCODING 179
SWIDTH 602 0
DWIDTH 11 0
BBX 4 7 -1 6
BITMAP
F0
10
10
60
10
10
E0
ENDCHAR

STARTCHAR acute
ENCODING 180
SWIDTH 602 0
DWIDTH 11 0
BBX 4 3 3 10
BITMAP
30
60
C0
ENDCHAR

STARTCHAR mu
ENCODING 181
SWIDTH 602 0
DWIDTH 11 0
BBX 8 13 1 -3
BITMAP
C3
C3
C3
C3
C3
C3
C3
C7
FF
FB
C0
C0
C0
ENDCHAR

STARTCHAR paragraph
ENCODING 182
SWIDTH 602 0
DWIDTH 11 0
BBX 6 16 2 -3
BITMAP
7C
F4
F4
F4
F4
74
34
14
14
14
14
14
14
14
14
14
ENDCHAR

STARTCHAR periodcentered
ENCODING 183
SWIDTH 602 0
DWIDTH 11 0
BBX 2 2 4 4
BITMAP
C0
C0
ENDCHAR

STARTCHAR cedilla
ENCODING 184
SWIDTH 602 0
DWIDTH 11 0
BBX 2 4 5 -4
BITMAP
80
C0
40
C0
ENDCHAR

STARTCHAR onesuperior
ENCODING 185
SWIDTH 602 0
DWIDTH 11 0
BBX 5 7 -1 6
BITMAP
E0
20
20
20
20
20
F8
ENDCHAR

STARTCHAR ordmasculine
ENCODING 186
SWIDTH 602 0
DWIDTH 11 0
BBX 7 7 2 6
BITMAP
7C
C6
C6
C6
C6
C6
7C
ENDCHAR

STARTCHAR guillemotright
ENCODING 187
SWIDTH 602 0
DWIDTH 11 0
BBX 9 8 1 1
BITMAP
8800
CC00
6600
3300
1980
3300
6600
CC00
ENDCHAR

STARTCHAR onequarter
ENCODING 188
SWIDTH 602 0
DWIDTH 11 0
BBX 11 13 2 0
BITMAP
E040
2080
2080
2100
2200
2640
F4C0
0940
1140
1240
23E0
4040
8040
ENDCHAR

STARTCHAR onehalf
ENCODING 189
SWIDTH 602 0
DWIDTH 11 0
BBX 11 13 2 0
BITMAP
E040
20C0
2080
2100
2200
2400
F5C0
0820
1020
1040
2080
4100
C1E0
ENDCHAR

STARTCHAR threequarters
ENCODING 190
SWIDTH 602 0
DWIDTH 11 0
BBX 11 13 2 0
BITMAP
E040
10C0
1080
6100
1200
1440
E4C0
0940
0940
1240
23E0
4040
C040
ENDCHAR

STARTCHAR questiondown
ENCODING 191
SWIDTH 602 0
DWIDTH 11 0
BBX 8 14 1 -4
BITMAP
0C
0C
00
00
0C
0C
08
10
20
40
C0
C1
C1
7F
ENDCHAR

STARTCHAR Agrave
ENCODING 192
SWIDTH 602 0
DWIDTH 11 0
BBX 11 17 0 0
BITMAP
0C00
0600
0300
0000
0E00
0E00
0E00
1B00
1300
3300
3380
2180
7F80
60C0
40C0
C0C0
C0E0
ENDCHAR

STARTCHAR Aacute
ENCODING 193
SWIDTH 602 0
DWIDTH 11 0
BBX 11 17 0 0
BITMAP
0600
0C00
1800
0000
0E00
0E00
0E00
1B00
1300
3300
3380
2180
7F80
60C0
40C0
C0C0
C0E0
ENDCHAR

STARTCHAR Acircumflex
ENCODING 194
SWIDTH 602 0
DWIDTH 11 0
BBX 11 17 0 0
BITMAP
0C00
1200
3300
0000
0E00
0E00
0E00
1B00
1300
3300
3380
2180
7F80
60C0
40C0
C0C0
C0E0
ENDCHAR

STARTCHAR Atilde
ENCODING 195
SWIDTH 602 0
DWIDTH 11 0
BBX 11 16 0 0
BITMAP
1D00
1700
0000
0E00
0E00
0E00
1B00
1300
3300
3380
2180
7F80
60C0
40C0
C0C0
C0E0
ENDCHAR

STARTCHAR Adieresis
ENCODING 196
SWIDTH 602 0
DWIDTH 11 0
BBX 11 16 0 0
BITMAP
1B00
1B00
0000
0E00
0E00
0E00
1B00
1300
3300
3380
2180
7F80
60C0
40C0
C0C0
C0E0
ENDCHAR

STARTCHAR Aring
ENCODING 197
SWIDTH 602 0
DWIDTH 11 0
BBX 11 16 0 0
BITMAP
0E00
1100
1100
0E00
0E00
0E00
1B00
1300
3300
3380
2180
7F80
60C0
40C0
C0C0
C0E0
ENDCHAR

STARTCHAR AE
ENCODING 198
SWIDTH 602 0
DWIDTH 11 0
BBX 10 13 0 0
BITMAP
07C0
0E00
0E00
1E00
1E00
1600
3780
3600
2600
7E00
4600
C600
C7C0
ENDCHAR

STARTCHAR Ccedilla
ENCODING 199
SWIDTH 602 0
DWIDTH 11 0
BBX 9 17 1 -4
BITMAP
1F80
3080
6000
4000
C000
C000
C000
C000
C000
6000
7080
3F80
1F00
0800
0C00
0400
0800
ENDCHAR

STARTCHAR Egrave
ENCODING 200
SWIDTH 602 0
DWIDTH 11 0
BBX 8 17 2 0
BITMAP
30
18
0C
00
FF
C0
C0
C0
C0
C0
FE
C0
C0
C0
C0
C0
FF
ENDCHAR

STARTCHAR Eacute
ENCODING 201
SWIDTH 602 0
DWIDTH 11 0
BBX 8 17 2 0
BITMAP
18
30
60
00
FF
C0
C0
C0
C0
C0
FE
C0
C0
C0
C0
C0
FF
ENDCHAR

STARTCHAR Ecircumflex
ENCODING 202
SWIDTH 602 0
DWIDTH 11 0
BBX 8 17 2 0
BITMAP
18
24
66
00
FF
C0
C0
C0
C0
C0
FE
C0
C0
C0
C0
C0
FF
ENDCHAR

STARTCHAR Edieresis
ENCODING 203
SWIDTH 602 0
DWIDTH 11 0
BBX 8 16 2 0
BITMAP
6C
6C
00
FF
C0
C0
C0
C0
C0
FE
C0
C0
C0
C0
C0
FF
ENDCHAR

STARTCHAR Igrave
ENCODING 204
SWIDTH 602 0
DWIDTH 11 0
BBX 8 17 1 0
BITMAP
30
18
0C
00
FF
18
18
18
18
18
18
18
18
18
18
18
FF
ENDCHAR

STARTCHAR Iacute
ENCODING 205
SWIDTH 602 0
DWIDTH 11 0
BBX 8 17 1 0
BITMAP
0C
18
30
00
FF
18
18
18
18
18
18
18
18
18
18
18
FF
ENDCHAR

STARTCHAR Icircumflex
ENCODING 206
SWIDTH 602 0
DWIDTH 11 0
BBX 8 17 1 0
BITMAP
18
24
66
00
FF
18
18
18
18
18
18
18
18
18
18
18
FF
ENDCHAR

STARTCHAR Idieresis
ENCODING 207
SWIDTH 602 0
DWIDTH 11 0
BBX 8 16 1 0
BITMAP
36
36
00
FF
18
18
18
18
18
18
18
18
18
18
18
FF
ENDCHAR

STARTCHAR Eth
ENCODING 208
SWIDTH 602 0
DWIDTH 11 0
BBX 10 13 0 0
BITMAP
7E00
6380
6180
60C0
60C0
60C0
F8C0
60C0
60C0
60C0
6180
6300
7E00
ENDCHAR

STARTCHAR Ntilde
ENCODING 209
SWIDTH 602 0
DWIDTH 11 0
BBX 9 16 1 0
BITMAP
3A00
2E00
0000
E180
E180
F180
D180
D980
C980
CD80
C580
C780
C380
C380
C180
C180
ENDCHAR

STARTCHAR Ograve
ENCODING 210
SWIDTH 602 0
DWIDTH 11 0
BBX 10 17 0 0
BITMAP
1800
0C00
0600
0000
3F00
6180
C0C0
C0C0
C0C0
C0C0
C0C0
C0C0
C0C0
C0C0
C0C0
6180
3F00
ENDCHAR

STARTCHAR Oacute
ENCODING 211
SWIDTH 602 0
DWIDTH 11 0
BBX 10 17 0 0
BITMAP
0600
0C00
1800
0000
3F00
6180
C0C0
C0C0
C0C0
C0C0
C0C0
C0C0
C0C0
C0C0
C0C0
6180
3F00
ENDCHAR

STARTCHAR Ocircumflex
ENCODING 212
SWIDTH 602 0
DWIDTH 11 0
BBX 10 17 0 0
BITMAP
0C00
1200
3300
0000
3F00
6180
C0C0
C0C0
C0C0
C0C0
C0C0
C0C0
C0C0
C0C0
C0C0
6180
3F00
ENDCHAR

STARTCHAR Otilde
ENCODING 213
SWIDTH 602 0
DWIDTH 11 0
BBX 10 16 0 0
BITMAP
3A00
2E00
0000
3F00
6180
C0C0
C0C0
C0C0
C0C0
C0C0
C0C0
C0C0
C0C0
C0C0
6180
3F00
ENDCHAR

STARTCHAR Odieresis
ENCODING 214
SWIDTH 602 0
DWIDTH 11 0
BBX 10 16 0 0
BITMAP
1B00
1B00
0000
3F00
6180
C0C0
C0C0
C0C0
C0C0
C0C0
C0C0
C0C0
C0C0
C0C0
6180
3F00
ENDCHAR

STARTCHAR multiply
ENCODING 215
SWIDTH 602 0
DWIDTH 11 0
BBX 9 9 1 1
BITMAP
8080
4100
2200
1400
0800
1400
2200
4100
8080
ENDCHAR

STARTCHAR Oslash
ENCODING 216
SWIDTH 602 0
DWIDTH 11 0
BBX 10 13 0 0
BITMAP
3EC0
6180
C1C0
C2C0
C2C0
C4C0
CCC0
C8C0
D0C0
F0C0
60C0
6180
BF00
ENDCHAR

STARTCHAR Ugrave
ENCODING 217
SWIDTH 602 0
DWIDTH 11 0
BBX 9 17 1 0
BITMAP
1800
0C00
0600
0000
C180
C180
C180
C180
C180
C180
C180
C180
C180
C180
C180
6300
3E00
ENDCHAR

STARTCHAR Uacute
ENCODING 218
SWIDTH 602 0
DWIDTH 11 0
BBX 9 17 1 0
BITMAP
0C00
1800
3000
0000
C180
C180
C180
C180
C180
C180
C180
C180
C180
C180
C180
6300
3E00
ENDCHAR

STARTCHAR Ucircumflex
ENCODING 219
SWIDTH 602 0
DWIDTH 11 0
BBX 9 17 1 0
BITMAP
0C00
1200
3300
0000
C180
C180
C180
C180
C180
C180
C180
C180
C180
C180
C180
6300
3E00
ENDCHAR

STARTCHAR Udieresis
ENCODING 220
SWIDTH 602 0
DWIDTH 11 0
BBX 9 16 1 0
BITMAP
3600
3600
0000
C180
C180
C180
C180
C180
C180
C180
C180
C180
C180
C180
6300
3E00
ENDCHAR

STARTCHAR Yacute
ENCODING 221
SWIDTH 602 0
DWIDTH 11 0
BBX 10 17 1 0
BITMAP
0600
0C00
1800
0000
C0C0
6080
6180
3300
3300
1E00
1E00
0C00
0C00
0C00
0C00
0C00
0C00
ENDCHAR

STARTCHAR Thorn
ENCODING 222
SWIDTH 602 0
DWIDTH 11 0
BBX 8 13 2 0
BITMAP
C0
C0
FE
C7
C3
C3
C3
C3
C6
FC
C0
C0
C0
ENDCHAR

STARTCHAR germandbls
ENCODING 223
SWIDTH 602 0
DWIDTH 11 0
BBX 9 14 2 0
BITMAP
7C00
C600
C600
C600
C400
C800
D800
DC00
CE00
C700
C380
C180
D180
DF00
ENDCHAR

STARTCHAR agrave
ENCODING 224
SWIDTH 602 0
DWIDTH 11 0
BBX 10 14 1 0
BITMAP
1800
0C00
0600
0000
7E00
4300
0300
0300
3F00
6300
C300
C300
C700
7DC0
ENDCHAR

STARTCHAR aacute
ENCODING 225
SWIDTH 602 0
DWIDTH 11 0
BBX 10 14 1 0
BITMAP
0C00
1800
3000
0000
7E00
4300
0300
0300
3F00
6300
C300
C300
C700
7DC0
ENDCHAR

STARTCHAR acircumflex
ENCODING 226
SWIDTH 602 0
DWIDTH 11 0
BBX 10 14 1 0
BITMAP
0C00
1200
3300
0000
7E00
4300
0300
0300
3F00
6300
C300
C300
C700
7DC0
ENDCHAR

STARTCHAR atilde
ENCODING 227
SWIDTH 602 0
DWIDTH 11 0
BBX 10 13 1 0
BITMAP
3A00
2E00
0000
7E00
4300
0300
0300
3F00
6300
C300
C300
C700
7DC0
ENDCHAR

STARTCHAR adieresis
ENCODING 228
SWIDTH 602 0
DWIDTH 11 0
BBX 10 13 1 0
BITMAP
3600
3600
0000
7E00
4300
0300
0300
3F00
6300
C300
C300
C700
7DC0
ENDCHAR

STARTCHAR aring
ENCODING 229
SWIDTH 602 0
DWIDTH 11 0
BBX 10 13 1 0
BITMAP
1800
2400
2400
7E00
4300
0300
0300
3F00
6300
C300
C300
C700
7DC0
ENDCHAR

STARTCHAR ae
ENCODING 230
SWIDTH 602 0
DWIDTH 11 0
BBX 10 10 1 0
BITMAP
7380
1EC0
0C40
0C40
7FC0
CC00
8C00
8C00
FE40
77C0
ENDCHAR

STARTCHAR ccedilla
ENCODING 231
SWIDTH 602 0
DWIDTH 11 0
BBX 8 14 2 -4
BITMAP
3F
71
E0
C0
C0
C0
C0
E0
71
3F
10
10
08
18
ENDCHAR

STARTCHAR egrave
ENCODING 232
SWIDTH 602 0
DWIDTH 11 0
BBX 8 14 1 0
BITMAP
30
18
0C
00
3C
66
43
C3
FF
C0
C0
C0
61
3F
ENDCHAR

STARTCHAR eacute
ENCODING 233
SWIDTH 602 0
DWIDTH 11 0
BBX 8 14 1 0
BITMAP
0C
18
30
00
3C
66
43
C3
FF
C0
C0
C0
61
3F
ENDCHAR

STARTCHAR ecircumflex
ENCODING 234
SWIDTH 602 0
DWIDTH 11 0
BBX 8 14 1 0
BITMAP
18
24
66
00
3C
66
43
C3
FF
C0
C0
C0
61
3F
ENDCHAR

STARTCHAR edieresis
ENCODING 235
SWIDTH 602 0
DWIDTH 11 0
BBX 8 13 1 0
BITMAP
6C
6C
00
3C
66
43
C3
FF
C0
C0
C0
61
3F
ENDCHAR

STARTCHAR igrave
ENCODING 236
SWIDTH 602 0
DWIDTH 11 0
BBX 6 14 2 0
BITMAP
30
18
0C
00
F8
18
18
18
18
18
18
18
18
18
ENDCHAR

STARTCHAR iacute
ENCODING 237
SWIDTH 602 0
DWIDTH 11 0
BBX 6 14 2 0
BITMAP
0C
18
30
00
F8
18
18
18
18
18
18
18
18
18
ENDCHAR

STARTCHAR icircumflex
ENCODING 238
SWIDTH 602 0
DWIDTH 11 0
BBX 7 14 2 0
BITMAP
18
24
66
00
F8
18
18
18
18
18
18
18
18
18
ENDCHAR

STARTCHAR idieresis
ENCODING 239
SWIDTH 602 0
DWIDTH 11 0
BBX 6 13 2 0
BITMAP
6C
6C
00
F8
18
18
18
18
18
18
18
18
18
ENDCHAR

STARTCHAR eth
ENCODING 240
SWIDTH 602 0
DWIDTH 11 0
BBX 9 13 1 0
BITMAP
E600
3C00
1C00
2600
1F00
6380
C180
C180
C180
C180
C180
6300
3E00
ENDCHAR

STARTCHAR ntilde
ENCODING 241
SWIDTH 602 0
DWIDTH 11 0
BBX 8 13 1 0
BITMAP
74
5C
00
CE
DF
F3
E3
C3
C3
C3
C3
C3
C3
ENDCHAR

STARTCHAR ograve
ENCODING 242
SWIDTH 602 0
DWIDTH 11 0
BBX 9 14 1 0
BITMAP
1800
0C00
0600
0000
3E00
6300
C180
C180
C180
C180
C180
C180
6300
3E00
ENDCHAR

STARTCHAR oacute
ENCODING 243
SWIDTH 602 0
DWIDTH 11 0
BBX 9 14 1 0
BITMAP
0C00
1800
3000
0000
3E00
6300
C180
C180
C180
C180
C180
C180
6300
3E00
ENDCHAR

STARTCHAR ocircumflex
ENCODING 244
SWIDTH 602 0
DWIDTH 11 0
BBX 9 14 1 0
BITMAP
0C00
1200
3300
0000
3E00
6300
C180
C180
C180
C180
C180
C180
6300
3E00
ENDCHAR

STARTCHAR otilde
ENCODING 245
SWIDTH 602 0
DWIDTH 11 0
BBX 9 13 1 0
BITMAP
3A00
2E00
0000
3E00
6300
C180
C180
C180
C180
C180
C180
6300
3E00
ENDCHAR

STARTCHAR odieresis
ENCODING 246
SWIDTH 602 0
DWIDTH 11 0
BBX 9 13 1 0
BITMAP
3600
3600
0000
3E00
6300
C180
C180
C180
C180
C180
C180
6300
3E00
ENDCHAR

STARTCHAR divide
ENCODING 247
SWIDTH 602 0
DWIDTH 11 0
BBX 10 10 0 0
BITMAP
0C00
0C00
0000
0000
0000
FFC0
0000
0000
0C00
0C00
ENDCHAR

STARTCHAR oslash
ENCODING 248
SWIDTH 602 0
DWIDTH 11 0
BBX 9 10 1 0
BITMAP
3E80
6300
C380
C580
C980
C980
D180
E180
6300
BE00
ENDCHAR

STARTCHAR ugrave
ENCODING 249
SWIDTH 602 0
DWIDTH 11 0
BBX 8 14 1 0
BITMAP
30
18
0C
00
C3
C3
C3
C3
C3
C3
C3
C3
FF
7B
ENDCHAR

STARTCHAR uacute
ENCODING 250
SWIDTH 602 0
DWIDTH 11 0
BBX 8 14 1 0
BITMAP
0C
18
30
00
C3
C3
C3
C3
C3
C3
C3
C3
FF
7B
ENDCHAR

STARTCHAR ucircumflex
ENCODING 251
SWIDTH 602 0
DWIDTH 11 0
BBX 8 14 1 0
BITMAP
18
24
66
00
C3
C3
C3
C3
C3
C3
C3
C3
FF
7B
ENDCHAR

STARTCHAR udieresis
ENCODING 252
SWIDTH 602 0
DWIDTH 11 0
BBX 8 13 1 0
BITMAP
36
36
00
C3
C3
C3
C3
C3
C3
C3
C3
FF
7B
ENDCHAR

STARTCHAR yacute
ENCODING 253
SWIDTH 602 0
DWIDTH 11 0
BBX 10 18 1 -4
BITMAP
0C00
1800
3000
0000
C0C0
E180
6180
6100
3300
3200
3E00
1E00
1C00
0C00
0800
1800
1000
6000
ENDCHAR

STARTCHAR thorn
ENCODING 254
SWIDTH 602 0
DWIDTH 11 0
BBX 9 16 1 -4
BITMAP
C000
C000
CE00
FF00
E380
C180
C180
C180
C180
C100
E300
DE00
C000
C000
C000
C000
ENDCHAR

STARTCHAR ydieresis
ENCODING 255
SWIDTH 602 0
DWIDTH 11 0
BBX 10 17 1 -4
BITMAP
3600
3600
0000
C0C0
E180
6180
6100
3300
3200
3E00
1E00
1C00
0C00
0800
1800
1000
6000
ENDCHAR
ENDFONT
